# xmcd
#
# Track frame offsets:
#	150
#	14647
#	20910
#	29370
#	41635
#	53212
#	63032
#	74222
#	86402
#	94047
#	100412
#	114440
#	125547
#	134692
#	149002
#	160712
#	182445
#	200442
#	214120
#	227837
#	239760
#	255625
#	271990
#
# Disc length: 3804 seconds
#
# Revision: 0
# Processed by: cddbd v1.4PL0 Copyright (c) Steve Scherf et al.
# Submitted via: dBpowerAMP V4.0
#
DISCID=5c0eda17
DTITLE=CD4 - les chemins de Saint Germain-des-Prés
DYEAR=2001
DGENRE=Chanson
TTITLE0=si tu t'imagines  Juliette Gréco
TTITLE1=la fourmi  Juliette Gréco
TTITLE2=la rue des blancs-manteaux  Juliette Gréco
TTITLE3=Mac Pherson  Félix Leclerc
TTITLE4=le train du Nord  Félix Leclerc
TTITLE5=le roi heureux  Félix Leclerc
TTITLE6=notre sentier  Félix Leclerc
TTITLE7=la complainte du pêcheur  Félix Leclerc
TTITLE8=la gigue  Félix Leclerc
TTITLE9=petit Pierre Félix Leclerc
TTITLE10=le voyage à Robinson  Cora Vaucaire
TTITLE11=un vieux farceur  Cora Vaucaire
TTITLE12=ne prenez point femme  Marc et André
TTITLE13=Monsieur Williams  Marc et André
TTITLE14=métro  Robert Lamoureux
TTITLE15=la complainte du roi Renaud  Cora Vaucaire
TTITLE16=la fille du roi Loÿs  Cora Vaucaire
TTITLE17=les gueux au paradis  les quatre barbus
TTITLE18=la complainte des gueux au paradis  Marc et André
TTITLE19=quelqu'un  les frères Jacques
TTITLE20=la gavotte des bâtons blancs les frères Jacques
TTITLE21=le général Castagnetas  les frères Jacques
TTITLE22=si tu t'imagines  les frères Jacques
EXTD=
EXTT0=
EXTT1=
EXTT2=
EXTT3=
EXTT4=
EXTT5=
EXTT6=
EXTT7=
EXTT8=
EXTT9=
EXTT10=
EXTT11=
EXTT12=
EXTT13=
EXTT14=
EXTT15=
EXTT16=
EXTT17=
EXTT18=
EXTT19=
EXTT20=
EXTT21=
EXTT22=
PLAYORDER=
